#usda 1.0
(
    customLayerData = {
        dictionary cameraSettings = {
            dictionary Front = {
                double3 position = (5.000000111758711, 0, 0)
                double radius = 5
            }
            dictionary Perspective = {
                double3 position = (0.4083214507919544, 0.585134438491892, 0.13633844173896786)
                double3 target = (-1.3533357323680661e-7, 4.418254873073124e-8, 7.57189121680657e-8)
            }
            dictionary Right = {
                double3 position = (0, -5.000000111758711, 0)
                double radius = 5
            }
            dictionary Top = {
                double3 position = (0, 0, 5.000000111758711)
                double radius = 5
            }
            string boundCamera = "/OmniverseKit_Persp"
        }
        dictionary omni_layer = {
            string authoring_layer = "./cylinder.usd"
            dictionary locked = {
            }
            dictionary muteness = {
            }
        }
        dictionary renderSettings = {
        }
    }
    defaultPrim = "object"
    endTimeCode = 1000000
    metersPerUnit = 0.9999999776482582
    startTimeCode = 0
    timeCodesPerSecond = 60
    upAxis = "Z"
)

def Xform "object" (
    prepend apiSchemas = ["PhysicsRigidBodyAPI", "PhysxRigidBodyAPI", "PhysicsMassAPI"]
)
{
    bool physics:kinematicEnabled = 0
    float physics:mass = 0.05
    bool physics:rigidBodyEnabled = 1
    double3 xformOp:rotateXYZ = (0, 0, 0)
    double3 xformOp:scale = (1, 1, 1)
    double3 xformOp:translate = (0, 0, 0)
    uniform token[] xformOpOrder = ["xformOp:translate", "xformOp:rotateXYZ", "xformOp:scale"]

    def Xform "object"
    {
        quatd xformOp:orient = (1, 0, 0, 0)
        double3 xformOp:scale = (1, 1, 1)
        double3 xformOp:translate = (0, 0, 0)
        uniform token[] xformOpOrder = ["xformOp:translate", "xformOp:orient", "xformOp:scale"]

        def Mesh "Cylinder" (
            prepend apiSchemas = ["PhysicsCollisionAPI", "PhysxCollisionAPI", "PhysxConvexHullCollisionAPI", "PhysicsMeshCollisionAPI", "MaterialBindingAPI"]
        )
        {
            float3[] extent = [(-0.5, -0.5, -0.5), (0.5, 0.5, 0.5)]
            int[] faceVertexCounts = [4, 4, 4, 4, 4, 4, 4, 4, 4, 4, 4, 4, 4, 4, 4, 4, 4, 4, 4, 4, 4, 4, 4, 4, 4, 4, 4, 4, 4, 4, 4, 4, 3, 3, 3, 3, 3, 3, 3, 3, 3, 3, 3, 3, 3, 3, 3, 3, 3, 3, 3, 3, 3, 3, 3, 3, 3, 3, 3, 3, 3, 3, 3, 3, 3, 3, 3, 3, 3, 3, 3, 3, 3, 3, 3, 3, 3, 3, 3, 3, 3, 3, 3, 3, 3, 3, 3, 3, 3, 3, 3, 3, 3, 3, 3, 3]
            int[] faceVertexIndices = [0, 1, 33, 32, 1, 2, 34, 33, 2, 3, 35, 34, 3, 4, 36, 35, 4, 5, 37, 36, 5, 6, 38, 37, 6, 7, 39, 38, 7, 8, 40, 39, 8, 9, 41, 40, 9, 10, 42, 41, 10, 11, 43, 42, 11, 12, 44, 43, 12, 13, 45, 44, 13, 14, 46, 45, 14, 15, 47, 46, 15, 16, 48, 47, 16, 17, 49, 48, 17, 18, 50, 49, 18, 19, 51, 50, 19, 20, 52, 51, 20, 21, 53, 52, 21, 22, 54, 53, 22, 23, 55, 54, 23, 24, 56, 55, 24, 25, 57, 56, 25, 26, 58, 57, 26, 27, 59, 58, 27, 28, 60, 59, 28, 29, 61, 60, 29, 30, 62, 61, 30, 31, 63, 62, 31, 0, 32, 63, 0, 64, 1, 1, 64, 2, 2, 64, 3, 3, 64, 4, 4, 64, 5, 5, 64, 6, 6, 64, 7, 7, 64, 8, 8, 64, 9, 9, 64, 10, 10, 64, 11, 11, 64, 12, 12, 64, 13, 13, 64, 14, 14, 64, 15, 15, 64, 16, 16, 64, 17, 17, 64, 18, 18, 64, 19, 19, 64, 20, 20, 64, 21, 21, 64, 22, 22, 64, 23, 23, 64, 24, 24, 64, 25, 25, 64, 26, 26, 64, 27, 27, 64, 28, 28, 64, 29, 29, 64, 30, 30, 64, 31, 31, 64, 0, 32, 33, 65, 33, 34, 65, 34, 35, 65, 35, 36, 65, 36, 37, 65, 37, 38, 65, 38, 39, 65, 39, 40, 65, 40, 41, 65, 41, 42, 65, 42, 43, 65, 43, 44, 65, 44, 45, 65, 45, 46, 65, 46, 47, 65, 47, 48, 65, 48, 49, 65, 49, 50, 65, 50, 51, 65, 51, 52, 65, 52, 53, 65, 53, 54, 65, 54, 55, 65, 55, 56, 65, 56, 57, 65, 57, 58, 65, 58, 59, 65, 59, 60, 65, 60, 61, 65, 61, 62, 65, 62, 63, 65, 63, 32, 65]
            rel material:binding = </object/Looks/OmniPBR> (
                bindMaterialAs = "weakerThanDescendants"
            )
            normal3f[] normals = [(50, 0, 0), (49.03926, 9.754517, 0), (49.03926, 9.754517, 0), (50, 0, 0), (49.03926, 9.754517, 0), (46.193974, 19.13417, 0), (46.193974, 19.13417, 0), (49.03926, 9.754517, 0), (46.193974, 19.13417, 0), (41.57348, 27.778513, 0), (41.57348, 27.778513, 0), (46.193974, 19.13417, 0), (41.57348, 27.778513, 0), (35.35534, 35.35534, 0), (35.35534, 35.35534, 0), (41.57348, 27.778513, 0), (35.35534, 35.35534, 0), (27.778513, 41.57348, 0), (27.778513, 41.57348, 0), (35.35534, 35.35534, 0), (27.778513, 41.57348, 0), (19.13417, 46.193974, 0), (19.13417, 46.193974, 0), (27.778513, 41.57348, 0), (19.13417, 46.193974, 0), (9.754517, 49.03926, 0), (9.754517, 49.03926, 0), (19.13417, 46.193974, 0), (9.754517, 49.03926, 0), (3.061617e-15, 50, 0), (3.061617e-15, 50, 0), (9.754517, 49.03926, 0), (3.061617e-15, 50, 0), (-9.754517, 49.03926, 0), (-9.754517, 49.03926, 0), (3.061617e-15, 50, 0), (-9.754517, 49.03926, 0), (-19.13417, 46.193974, 0), (-19.13417, 46.193974, 0), (-9.754517, 49.03926, 0), (-19.13417, 46.193974, 0), (-27.778513, 41.57348, 0), (-27.778513, 41.57348, 0), (-19.13417, 46.193974, 0), (-27.778513, 41.57348, 0), (-35.35534, 35.35534, 0), (-35.35534, 35.35534, 0), (-27.778513, 41.57348, 0), (-35.35534, 35.35534, 0), (-41.57348, 27.778513, 0), (-41.57348, 27.778513, 0), (-35.35534, 35.35534, 0), (-41.57348, 27.778513, 0), (-46.193974, 19.13417, 0), (-46.193974, 19.13417, 0), (-41.57348, 27.778513, 0), (-46.193974, 19.13417, 0), (-49.03926, 9.754517, 0), (-49.03926, 9.754517, 0), (-46.193974, 19.13417, 0), (-49.03926, 9.754517, 0), (-50, 6.123234e-15, 0), (-50, 6.123234e-15, 0), (-49.03926, 9.754517, 0), (-50, 6.123234e-15, 0), (-49.03926, -9.754517, 0), (-49.03926, -9.754517, 0), (-50, 6.123234e-15, 0), (-49.03926, -9.754517, 0), (-46.193974, -19.13417, 0), (-46.193974, -19.13417, 0), (-49.03926, -9.754517, 0), (-46.193974, -19.13417, 0), (-41.57348, -27.778513, 0), (-41.57348, -27.778513, 0), (-46.193974, -19.13417, 0), (-41.57348, -27.778513, 0), (-35.35534, -35.35534, 0), (-35.35534, -35.35534, 0), (-41.57348, -27.778513, 0), (-35.35534, -35.35534, 0), (-27.778513, -41.57348, 0), (-27.778513, -41.57348, 0), (-35.35534, -35.35534, 0), (-27.778513, -41.57348, 0), (-19.13417, -46.193974, 0), (-19.13417, -46.193974, 0), (-27.778513, -41.57348, 0), (-19.13417, -46.193974, 0), (-9.754517, -49.03926, 0), (-9.754517, -49.03926, 0), (-19.13417, -46.193974, 0), (-9.754517, -49.03926, 0), (-9.184851e-15, -50, 0), (-9.184851e-15, -50, 0), (-9.754517, -49.03926, 0), (-9.184851e-15, -50, 0), (9.754517, -49.03926, 0), (9.754517, -49.03926, 0), (-9.184851e-15, -50, 0), (9.754517, -49.03926, 0), (19.13417, -46.193974, 0), (19.13417, -46.193974, 0), (9.754517, -49.03926, 0), (19.13417, -46.193974, 0), (27.778513, -41.57348, 0), (27.778513, -41.57348, 0), (19.13417, -46.193974, 0), (27.778513, -41.57348, 0), (35.35534, -35.35534, 0), (35.35534, -35.35534, 0), (27.778513, -41.57348, 0), (35.35534, -35.35534, 0), (41.57348, -27.778513, 0), (41.57348, -27.778513, 0), (35.35534, -35.35534, 0), (41.57348, -27.778513, 0), (46.193974, -19.13417, 0), (46.193974, -19.13417, 0), (41.57348, -27.778513, 0), (46.193974, -19.13417, 0), (49.03926, -9.754517, 0), (49.03926, -9.754517, 0), (46.193974, -19.13417, 0), (49.03926, -9.754517, 0), (50, 0, 0), (50, 0, 0), (49.03926, -9.754517, 0), (0, 0, -1), (0, 0, -1), (0, 0, -1), (0, 0, -1), (0, 0, -1), (0, 0, -1), (0, 0, -1), (0, 0, -1), (0, 0, -1), (0, 0, -1), (0, 0, -1), (0, 0, -1), (0, 0, -1), (0, 0, -1), (0, 0, -1), (0, 0, -1), (0, 0, -1), (0, 0, -1), (0, 0, -1), (0, 0, -1), (0, 0, -1), (0, 0, -1), (0, 0, -1), (0, 0, -1), (0, 0, -1), (0, 0, -1), (0, 0, -1), (0, 0, -1), (0, 0, -1), (0, 0, -1), (0, 0, -1), (0, 0, -1), (0, 0, -1), (0, 0, -1), (0, 0, -1), (0, 0, -1), (0, 0, -1), (0, 0, -1), (0, 0, -1), (0, 0, -1), (0, 0, -1), (0, 0, -1), (0, 0, -1), (0, 0, -1), (0, 0, -1), (0, 0, -1), (0, 0, -1), (0, 0, -1), (0, 0, -1), (0, 0, -1), (0, 0, -1), (0, 0, -1), (0, 0, -1), (0, 0, -1), (0, 0, -1), (0, 0, -1), (0, 0, -1), (0, 0, -1), (0, 0, -1), (0, 0, -1), (0, 0, -1), (0, 0, -1), (0, 0, -1), (0, 0, -1), (0, 0, -1), (0, 0, -1), (0, 0, -1), (0, 0, -1), (0, 0, -1), (0, 0, -1), (0, 0, -1), (0, 0, -1), (0, 0, -1), (0, 0, -1), (0, 0, -1), (0, 0, -1), (0, 0, -1), (0, 0, -1), (0, 0, -1), (0, 0, -1), (0, 0, -1), (0, 0, -1), (0, 0, -1), (0, 0, -1), (0, 0, -1), (0, 0, -1), (0, 0, -1), (0, 0, -1), (0, 0, -1), (0, 0, -1), (0, 0, -1), (0, 0, -1), (0, 0, -1), (0, 0, -1), (0, 0, -1), (0, 0, -1), (0, 0, 1), (0, 0, 1), (0, 0, 1), (0, 0, 1), (0, 0, 1), (0, 0, 1), (0, 0, 1), (0, 0, 1), (0, 0, 1), (0, 0, 1), (0, 0, 1), (0, 0, 1), (0, 0, 1), (0, 0, 1), (0, 0, 1), (0, 0, 1), (0, 0, 1), (0, 0, 1), (0, 0, 1), (0, 0, 1), (0, 0, 1), (0, 0, 1), (0, 0, 1), (0, 0, 1), (0, 0, 1), (0, 0, 1), (0, 0, 1), (0, 0, 1), (0, 0, 1), (0, 0, 1), (0, 0, 1), (0, 0, 1), (0, 0, 1), (0, 0, 1), (0, 0, 1), (0, 0, 1), (0, 0, 1), (0, 0, 1), (0, 0, 1), (0, 0, 1), (0, 0, 1), (0, 0, 1), (0, 0, 1), (0, 0, 1), (0, 0, 1), (0, 0, 1), (0, 0, 1), (0, 0, 1), (0, 0, 1), (0, 0, 1), (0, 0, 1), (0, 0, 1), (0, 0, 1), (0, 0, 1), (0, 0, 1), (0, 0, 1), (0, 0, 1), (0, 0, 1), (0, 0, 1), (0, 0, 1), (0, 0, 1), (0, 0, 1), (0, 0, 1), (0, 0, 1), (0, 0, 1), (0, 0, 1), (0, 0, 1), (0, 0, 1), (0, 0, 1), (0, 0, 1), (0, 0, 1), (0, 0, 1), (0, 0, 1), (0, 0, 1), (0, 0, 1), (0, 0, 1), (0, 0, 1), (0, 0, 1), (0, 0, 1), (0, 0, 1), (0, 0, 1), (0, 0, 1), (0, 0, 1), (0, 0, 1), (0, 0, 1), (0, 0, 1), (0, 0, 1), (0, 0, 1), (0, 0, 1), (0, 0, 1), (0, 0, 1), (0, 0, 1), (0, 0, 1), (0, 0, 1), (0, 0, 1), (0, 0, 1)] (
                interpolation = "faceVarying"
            )
            uniform token physics:approximation = "convexHull"
            bool physics:collisionEnabled = 1
            point3f[] points = [(0.5, 0, -0.5), (0.49039263, 0.09754517, -0.5), (0.46193975, 0.19134171, -0.5), (0.4157348, 0.27778512, -0.5), (0.35355338, 0.35355338, -0.5), (0.27778512, 0.4157348, -0.5), (0.19134171, 0.46193975, -0.5), (0.09754517, 0.49039263, -0.5), (3.061617e-17, 0.5, -0.5), (-0.09754517, 0.49039263, -0.5), (-0.19134171, 0.46193975, -0.5), (-0.27778512, 0.4157348, -0.5), (-0.35355338, 0.35355338, -0.5), (-0.4157348, 0.27778512, -0.5), (-0.46193975, 0.19134171, -0.5), (-0.49039263, 0.09754517, -0.5), (-0.5, 6.123234e-17, -0.5), (-0.49039263, -0.09754517, -0.5), (-0.46193975, -0.19134171, -0.5), (-0.4157348, -0.27778512, -0.5), (-0.35355338, -0.35355338, -0.5), (-0.27778512, -0.4157348, -0.5), (-0.19134171, -0.46193975, -0.5), (-0.09754517, -0.49039263, -0.5), (-9.1848514e-17, -0.5, -0.5), (0.09754517, -0.49039263, -0.5), (0.19134171, -0.46193975, -0.5), (0.27778512, -0.4157348, -0.5), (0.35355338, -0.35355338, -0.5), (0.4157348, -0.27778512, -0.5), (0.46193975, -0.19134171, -0.5), (0.49039263, -0.09754517, -0.5), (0.5, 0, 0.5), (0.49039263, 0.09754517, 0.5), (0.46193975, 0.19134171, 0.5), (0.4157348, 0.27778512, 0.5), (0.35355338, 0.35355338, 0.5), (0.27778512, 0.4157348, 0.5), (0.19134171, 0.46193975, 0.5), (0.09754517, 0.49039263, 0.5), (3.061617e-17, 0.5, 0.5), (-0.09754517, 0.49039263, 0.5), (-0.19134171, 0.46193975, 0.5), (-0.27778512, 0.4157348, 0.5), (-0.35355338, 0.35355338, 0.5), (-0.4157348, 0.27778512, 0.5), (-0.46193975, 0.19134171, 0.5), (-0.49039263, 0.09754517, 0.5), (-0.5, 6.123234e-17, 0.5), (-0.49039263, -0.09754517, 0.5), (-0.46193975, -0.19134171, 0.5), (-0.4157348, -0.27778512, 0.5), (-0.35355338, -0.35355338, 0.5), (-0.27778512, -0.4157348, 0.5), (-0.19134171, -0.46193975, 0.5), (-0.09754517, -0.49039263, 0.5), (-9.1848514e-17, -0.5, 0.5), (0.09754517, -0.49039263, 0.5), (0.19134171, -0.46193975, 0.5), (0.27778512, -0.4157348, 0.5), (0.35355338, -0.35355338, 0.5), (0.4157348, -0.27778512, 0.5), (0.46193975, -0.19134171, 0.5), (0.49039263, -0.09754517, 0.5), (0, 0, -0.5), (0, 0, 0.5)]
            texCoord2f[] primvars:st = [(0, 0), (0.03125, 0), (0.03125, 1), (0, 1), (0.03125, 0), (0.0625, 0), (0.0625, 1), (0.03125, 1), (0.0625, 0), (0.09375, 0), (0.09375, 1), (0.0625, 1), (0.09375, 0), (0.125, 0), (0.125, 1), (0.09375, 1), (0.125, 0), (0.15625, 0), (0.15625, 1), (0.125, 1), (0.15625, 0), (0.1875, 0), (0.1875, 1), (0.15625, 1), (0.1875, 0), (0.21875, 0), (0.21875, 1), (0.1875, 1), (0.21875, 0), (0.25, 0), (0.25, 1), (0.21875, 1), (0.25, 0), (0.28125, 0), (0.28125, 1), (0.25, 1), (0.28125, 0), (0.3125, 0), (0.3125, 1), (0.28125, 1), (0.3125, 0), (0.34375, 0), (0.34375, 1), (0.3125, 1), (0.34375, 0), (0.375, 0), (0.375, 1), (0.34375, 1), (0.375, 0), (0.40625, 0), (0.40625, 1), (0.375, 1), (0.40625, 0), (0.4375, 0), (0.4375, 1), (0.40625, 1), (0.4375, 0), (0.46875, 0), (0.46875, 1), (0.4375, 1), (0.46875, 0), (0.5, 0), (0.5, 1), (0.46875, 1), (0.5, 0), (0.53125, 0), (0.53125, 1), (0.5, 1), (0.53125, 0), (0.5625, 0), (0.5625, 1), (0.53125, 1), (0.5625, 0), (0.59375, 0), (0.59375, 1), (0.5625, 1), (0.59375, 0), (0.625, 0), (0.625, 1), (0.59375, 1), (0.625, 0), (0.65625, 0), (0.65625, 1), (0.625, 1), (0.65625, 0), (0.6875, 0), (0.6875, 1), (0.65625, 1), (0.6875, 0), (0.71875, 0), (0.71875, 1), (0.6875, 1), (0.71875, 0), (0.75, 0), (0.75, 1), (0.71875, 1), (0.75, 0), (0.78125, 0), (0.78125, 1), (0.75, 1), (0.78125, 0), (0.8125, 0), (0.8125, 1), (0.78125, 1), (0.8125, 0), (0.84375, 0), (0.84375, 1), (0.8125, 1), (0.84375, 0), (0.875, 0), (0.875, 1), (0.84375, 1), (0.875, 0), (0.90625, 0), (0.90625, 1), (0.875, 1), (0.90625, 0), (0.9375, 0), (0.9375, 1), (0.90625, 1), (0.9375, 0), (0.96875, 0), (0.96875, 1), (0.9375, 1), (0.96875, 0), (1, 0), (1, 1), (0.96875, 1), (1, 0.5), (0.5, 0.5), (0.99039257, 0.40245485), (0.99039257, 0.40245485), (0.5, 0.5), (0.9619397, 0.3086583), (0.9619397, 0.3086583), (0.5, 0.5), (0.91573477, 0.22221488), (0.91573477, 0.22221488), (0.5, 0.5), (0.8535534, 0.14644659), (0.8535534, 0.14644659), (0.5, 0.5), (0.7777851, 0.08426523), (0.7777851, 0.08426523), (0.5, 0.5), (0.6913417, 0.038060308), (0.6913417, 0.038060308), (0.5, 0.5), (0.59754515, 0.009607434), (0.59754515, 0.009607434), (0.5, 0.5), (0.5, 0), (0.5, 0), (0.5, 0.5), (0.40245482, 0.009607434), (0.40245482, 0.009607434), (0.5, 0.5), (0.3086583, 0.038060308), (0.3086583, 0.038060308), (0.5, 0.5), (0.22221488, 0.08426523), (0.22221488, 0.08426523), (0.5, 0.5), (0.14644662, 0.14644659), (0.14644662, 0.14644659), (0.5, 0.5), (0.0842652, 0.22221488), (0.0842652, 0.22221488), (0.5, 0.5), (0.038060278, 0.3086583), (0.038060278, 0.3086583), (0.5, 0.5), (0.0096074045, 0.40245485), (0.0096074045, 0.40245485), (0.5, 0.5), (0, 0.5), (0, 0.5), (0.5, 0.5), (0.0096074045, 0.59754515), (0.0096074045, 0.59754515), (0.5, 0.5), (0.038060278, 0.6913417), (0.038060278, 0.6913417), (0.5, 0.5), (0.0842652, 0.7777851), (0.0842652, 0.7777851), (0.5, 0.5), (0.14644662, 0.8535534), (0.14644662, 0.8535534), (0.5, 0.5), (0.22221488, 0.91573477), (0.22221488, 0.91573477), (0.5, 0.5), (0.3086583, 0.9619397), (0.3086583, 0.9619397), (0.5, 0.5), (0.40245482, 0.99039257), (0.40245482, 0.99039257), (0.5, 0.5), (0.5, 1), (0.5, 1), (0.5, 0.5), (0.59754515, 0.99039257), (0.59754515, 0.99039257), (0.5, 0.5), (0.6913417, 0.9619397), (0.6913417, 0.9619397), (0.5, 0.5), (0.7777851, 0.91573477), (0.7777851, 0.91573477), (0.5, 0.5), (0.8535534, 0.8535534), (0.8535534, 0.8535534), (0.5, 0.5), (0.91573477, 0.7777851), (0.91573477, 0.7777851), (0.5, 0.5), (0.9619397, 0.6913417), (0.9619397, 0.6913417), (0.5, 0.5), (0.99039257, 0.59754515), (0.99039257, 0.59754515), (0.5, 0.5), (1, 0.5), (1, 0.5), (0.99039257, 0.59754515), (0.5, 0.5), (0.99039257, 0.59754515), (0.9619397, 0.6913417), (0.5, 0.5), (0.9619397, 0.6913417), (0.91573477, 0.7777851), (0.5, 0.5), (0.91573477, 0.7777851), (0.8535534, 0.8535534), (0.5, 0.5), (0.8535534, 0.8535534), (0.7777851, 0.91573477), (0.5, 0.5), (0.7777851, 0.91573477), (0.6913417, 0.9619397), (0.5, 0.5), (0.6913417, 0.9619397), (0.59754515, 0.99039257), (0.5, 0.5), (0.59754515, 0.99039257), (0.5, 1), (0.5, 0.5), (0.5, 1), (0.40245482, 0.99039257), (0.5, 0.5), (0.40245482, 0.99039257), (0.3086583, 0.9619397), (0.5, 0.5), (0.3086583, 0.9619397), (0.22221488, 0.91573477), (0.5, 0.5), (0.22221488, 0.91573477), (0.14644662, 0.8535534), (0.5, 0.5), (0.14644662, 0.8535534), (0.0842652, 0.7777851), (0.5, 0.5), (0.0842652, 0.7777851), (0.038060278, 0.6913417), (0.5, 0.5), (0.038060278, 0.6913417), (0.0096074045, 0.59754515), (0.5, 0.5), (0.0096074045, 0.59754515), (0, 0.5), (0.5, 0.5), (0, 0.5), (0.0096074045, 0.40245482), (0.5, 0.5), (0.0096074045, 0.40245482), (0.038060278, 0.3086583), (0.5, 0.5), (0.038060278, 0.3086583), (0.0842652, 0.22221488), (0.5, 0.5), (0.0842652, 0.22221488), (0.14644662, 0.14644662), (0.5, 0.5), (0.14644662, 0.14644662), (0.22221488, 0.0842652), (0.5, 0.5), (0.22221488, 0.0842652), (0.3086583, 0.038060278), (0.5, 0.5), (0.3086583, 0.038060278), (0.40245482, 0.0096074045), (0.5, 0.5), (0.40245482, 0.0096074045), (0.5, 0), (0.5, 0.5), (0.5, 0), (0.59754515, 0.0096074045), (0.5, 0.5), (0.59754515, 0.0096074045), (0.6913417, 0.038060278), (0.5, 0.5), (0.6913417, 0.038060278), (0.7777851, 0.0842652), (0.5, 0.5), (0.7777851, 0.0842652), (0.8535534, 0.14644662), (0.5, 0.5), (0.8535534, 0.14644662), (0.91573477, 0.22221488), (0.5, 0.5), (0.91573477, 0.22221488), (0.9619397, 0.3086583), (0.5, 0.5), (0.9619397, 0.3086583), (0.99039257, 0.40245482), (0.5, 0.5), (0.99039257, 0.40245482), (1, 0.5), (0.5, 0.5)] (
                interpolation = "faceVarying"
            )
            uniform token subdivisionScheme = "none"
            quatd xformOp:orient = (1, 0, 0, 0)
            double3 xformOp:scale = (0.08, 0.08, 0.064)
            double3 xformOp:translate = (0, 0, 0)
            uniform token[] xformOpOrder = ["xformOp:translate", "xformOp:orient", "xformOp:scale"]
        }
    }

    def Scope "Looks"
    {
        def Material "OmniPBR"
        {
            token outputs:mdl:displacement.connect = </object/Looks/OmniPBR/Shader.outputs:out>
            token outputs:mdl:surface.connect = </object/Looks/OmniPBR/Shader.outputs:out>
            token outputs:mdl:volume.connect = </object/Looks/OmniPBR/Shader.outputs:out>

            def Shader "Shader"
            {
                uniform token info:implementationSource = "sourceAsset"
                uniform asset info:mdl:sourceAsset = @OmniPBR.mdl@
                uniform token info:mdl:sourceAsset:subIdentifier = "OmniPBR"
                asset inputs:diffuse_texture = @./20250902-152141.jpg@ (
                    colorSpace = "auto"
                )
                token outputs:out (
                    renderType = "material"
                )
            }
        }
    }
}

def "Render" (
    hide_in_stage_window = true
    no_delete = true
)
{
    def "OmniverseKit"
    {
        def "HydraTextures" (
            hide_in_stage_window = true
            no_delete = true
        )
        {
            def RenderProduct "omni_kit_widget_viewport_ViewportTexture_0" (
                prepend apiSchemas = ["OmniRtxSettingsCommonAdvancedAPI_1", "OmniRtxSettingsRtAdvancedAPI_1", "OmniRtxSettingsPtAdvancedAPI_1", "OmniRtxPostColorGradingAPI_1", "OmniRtxPostChromaticAberrationAPI_1", "OmniRtxPostBloomPhysicalAPI_1", "OmniRtxPostMatteObjectAPI_1", "OmniRtxPostCompositingAPI_1", "OmniRtxPostDofAPI_1", "OmniRtxPostMotionBlurAPI_1", "OmniRtxPostTvNoiseAPI_1", "OmniRtxPostTonemapIrayReinhardAPI_1", "OmniRtxPostDebugSettingsAPI_1", "OmniRtxDebugSettingsAPI_1"]
                hide_in_stage_window = true
                no_delete = true
            )
            {
                rel camera = </OmniverseKit_Persp>
                token omni:rtx:background:source:texture:textureMode = "repeatMirrored"
                token omni:rtx:background:source:type = "domeLight"
                bool omni:rtx:dlss:frameGeneration = 0
                string omni:rtx:material:db:rtSensorNameToIdMap = "DefaultMaterial:0;AsphaltStandardMaterial:1;AsphaltWeatheredMaterial:2;VegetationGrassMaterial:3;WaterStandardMaterial:4;GlassStandardMaterial:5;FiberGlassMaterial:6;MetalAlloyMaterial:7;MetalAluminumMaterial:8;MetalAluminumOxidizedMaterial:9;PlasticStandardMaterial:10;RetroMarkingsMaterial:11;RetroSignMaterial:12;RubberStandardMaterial:13;SoilClayMaterial:14;ConcreteRoughMaterial:15;ConcreteSmoothMaterial:16;OakTreeBarkMaterial:17;FabricStandardMaterial:18;PlexiGlassStandardMaterial:19;MetalSilverMaterial:20"
                bool omni:rtx:material:db:syncLoads = 1
                bool omni:rtx:post:registeredCompositing:invertColorCorrection = 1
                bool omni:rtx:post:registeredCompositing:invertToneMap = 1
                bool omni:rtx:pt:lightcache:cached:dontResolveConflicts = 1
                int omni:rtx:pt:maxSamplesPerLaunch = 2073600
                int omni:rtx:pt:mgpu:maxPixelsPerRegionExponent = 12
                color3f omni:rtx:rt:ambientLight:color = (0.1, 0.1, 0.1)
                bool omni:rtx:rt:demoire = 0
                bool omni:rtx:rt:lightcache:spatialCache:dontResolveConflicts = 1
                bool omni:rtx:scene:hydra:materialSyncLoads = 1
                bool omni:rtx:scene:hydra:mdlMaterialWarmup = 1
                uint omni:rtx:viewTile:limit = 4294967295
                rel orderedVars = </Render/Vars/LdrColor>
                custom bool overrideClipRange = 0
                uniform int2 resolution = (1280, 720)
            }
        }
    }

    def RenderSettings "OmniverseGlobalRenderSettings" (
        prepend apiSchemas = ["OmniRtxSettingsGlobalRtAdvancedAPI_1", "OmniRtxSettingsGlobalPtAdvancedAPI_1"]
        no_delete = true
    )
    {
        rel products = </Render/OmniverseKit/HydraTextures/omni_kit_widget_viewport_ViewportTexture_0>
    }

    def "Vars"
    {
        def RenderVar "LdrColor" (
            hide_in_stage_window = true
            no_delete = true
        )
        {
            uniform string sourceName = "LdrColor"
        }
    }
}

